<?xml version="1.0" encoding="UTF-8" standalone="no"?>
<!DOCTYPE svg PUBLIC "-//W3C//DTD SVG 1.1//EN" "http://www.w3.org/Graphics/SVG/1.1/DTD/svg11.dtd">
<svg version="1.1" xmlns="http://www.w3.org/2000/svg" xmlns:xlink="http://www.w3.org/1999/xlink" preserveAspectRatio="xMidYMid meet" viewBox="0 0 640 640" width="640" height="640"><defs><path d="M124.28 289.21L124.28 230.87L125.32 230.87L125.32 289.21L124.28 289.21ZM124.41 281.91L124.6 270.98L124.73 274.62L124.93 260.04L125.19 279.48L125.19 238.16L124.41 238.16L124.41 281.91ZM124.64 246.39L124.65 246.41L124.65 246.45L124.66 246.5L124.66 246.55L124.66 246.62L124.67 246.69L124.67 246.78L124.68 246.87L124.68 246.97L124.69 247.08L124.69 247.2L124.69 247.32L124.7 247.46L124.7 247.6L124.7 247.75L124.71 247.9L124.71 248.07L124.71 248.24L124.72 248.41L124.72 248.6L124.72 248.78L124.73 248.98L124.73 249.18L124.73 249.39L124.73 249.6L124.73 249.82L124.74 250.04L124.74 250.26L124.74 250.5L124.74 250.73L124.74 250.97L124.74 251.21L124.74 251.46L124.75 251.71L124.75 251.97L124.75 252.22L124.75 252.48L124.75 252.75L124.75 253.01L124.75 253.27L124.75 253.53L124.75 253.78L124.74 254.03L124.74 254.28L124.74 254.52L124.74 254.76L124.74 255L124.74 255.23L124.74 255.46L124.73 255.68L124.73 255.9L124.73 256.11L124.73 256.31L124.73 256.52L124.72 256.71L124.72 256.9L124.72 257.08L124.71 257.26L124.71 257.43L124.71 257.59L124.7 257.75L124.7 257.9L124.7 258.04L124.69 258.17L124.69 258.3L124.69 258.42L124.68 258.53L124.68 258.63L124.67 258.72L124.67 258.8L124.66 258.88L124.66 258.94L124.66 259L124.65 259.04L124.65 259.08L124.64 259.11L124.64 259.12L124.63 259.13L124.63 259.12L124.62 259.11L124.62 259.08L124.61 259.04L124.61 259L124.61 258.94L124.6 258.88L124.6 258.8L124.59 258.72L124.59 258.63L124.58 258.53L124.58 258.42L124.58 258.3L124.57 258.17L124.57 258.04L124.57 257.9L124.56 257.75L124.56 257.59L124.56 257.43L124.55 257.26L124.55 257.08L124.55 256.9L124.54 256.71L124.54 256.52L124.54 256.31L124.54 256.11L124.53 255.9L124.53 255.68L124.53 255.46L124.53 255.23L124.53 255L124.53 254.76L124.52 254.52L124.52 254.28L124.52 254.03L124.52 253.78L124.52 253.53L124.52 253.27L124.52 253.01L124.52 252.75L124.52 252.48L124.52 252.22L124.52 251.97L124.52 251.71L124.52 251.46L124.52 251.21L124.52 250.97L124.53 250.73L124.53 250.5L124.53 250.26L124.53 250.04L124.53 249.82L124.53 249.6L124.54 249.39L124.54 249.18L124.54 248.98L124.54 248.78L124.55 248.6L124.55 248.41L124.55 248.24L124.56 248.07L124.56 247.9L124.56 247.75L124.57 247.6L124.57 247.46L124.57 247.32L124.58 247.2L124.58 247.08L124.58 246.97L124.59 246.87L124.59 246.78L124.6 246.69L124.6 246.62L124.61 246.55L124.61 246.5L124.61 246.45L124.62 246.41L124.62 246.39L124.63 246.37L124.63 246.37L124.64 246.37L124.64 246.39Z" id="b5ARbtF1lU"></path><path d="" id="h5I1HvCkx7"></path><path d="M60.03 38.16L586.07 38.16L586.07 544.41L60.03 544.41L60.03 38.16Z" id="a22Lu9hA"></path><path d="M547.29 49.62C558.93 49.62 568.36 59.05 568.36 70.69C568.36 162.1 568.36 415.27 568.36 506.68C568.36 518.32 558.93 527.75 547.29 527.75C452.76 527.75 190.21 527.75 95.68 527.75C84.04 527.75 74.61 518.32 74.61 506.68C74.61 415.27 74.61 162.1 74.61 70.69C74.61 59.05 84.04 49.62 95.68 49.62C190.21 49.62 452.76 49.62 547.29 49.62Z" id="b2qKQ3qdhb"></path><path d="M295.76 110.16L289.37 111.4L272.87 122.94L260.63 134.83L246.79 155.41L238.8 182.03L236.14 202.79L236.14 223.55L236.14 246.44L236.14 266.31L240.4 282.2L246.79 301.92L256.37 317.24L275.53 336.93L294.16 347.77L312.26 353.08L312.26 174.04L312.26 159.67L313.86 150.09L316.52 139.97L324.51 122.94L335.68 113.36L352.72 104.84L367.62 101.29L387.32 103.77L405.95 109.1L419.79 116.55L436.29 128.79L446.94 139.97L455.46 153.81L462.91 174.04L468.23 193.2L469.83 204.03L471.96 222.48L471.96 238.45L469.83 261.34L464.51 282.2L451.73 308.82L427.78 333.84L408.08 346.61L382 358.85L360.17 365.78L343.67 370.03L343.67 481.29L312.26 481.29L312.26 370.03L297.36 368.44L271.81 362.13L252.11 353.08L231.88 339.77L212.19 319.01L199.94 297.76L190.89 266.31L188.23 229.05L188.23 204.03L194.62 179.01L205.27 151.86L218.04 134.83L229.22 126.84L252.11 111.4L268.08 106.61L295.76 101.29L295.76 110.16Z" id="eaIOXL16K"></path><path d="M343.14 153.81L343.14 355.56L370.29 347.77L392.11 334.27L415.53 304.99L427.78 274.65L427.78 252.82L427.78 215.03L421.39 187.88L411.81 164.46L405.95 153.81L386.26 136.78L365.49 131.99L348.99 140.5L343.14 153.81Z" id="a3JHM6NFYx"></path><mask id="maskcPZZahksx" x="337.14" y="125.99" width="96.64" height="235.57" maskUnits="userSpaceOnUse"><rect x="337.14" y="125.99" width="96.64" height="235.57" fill="white"></rect><use xlink:href="#a3JHM6NFYx" opacity="1" fill="black"></use></mask></defs><g><g><g><use xlink:href="#b5ARbtF1lU" opacity="1" fill="#8499bf" fill-opacity="1"></use></g><g><g><use xlink:href="#h5I1HvCkx7" opacity="1" fill-opacity="0" stroke="#5655ff" stroke-width="1" stroke-opacity="1"></use></g></g><g><use xlink:href="#a22Lu9hA" opacity="1" fill="#020202" fill-opacity="1"></use></g><g><use xlink:href="#b2qKQ3qdhb" opacity="1" fill="#200032" fill-opacity="1"></use></g><g><use xlink:href="#eaIOXL16K" opacity="1" fill="#f60429" fill-opacity="1"></use><g><use xlink:href="#eaIOXL16K" opacity="1" fill-opacity="0" stroke="#000002" stroke-width="8" stroke-opacity="1"></use></g></g><g><use xlink:href="#a3JHM6NFYx" opacity="1" fill="#200032" fill-opacity="1"></use><g mask="url(#maskcPZZahksx)"><use xlink:href="#a3JHM6NFYx" opacity="1" fill-opacity="0" stroke="#000000" stroke-width="6" stroke-opacity="1"></use></g></g></g></g></svg>